<?xml version="1.0" standalone="no"?>
<svg viewBox="0 0 200 200" xmlns="http://www.w3.org/2000/svg">
  <path fill="#0F62FE" d="M40.9,-58.8C54.5,-55,67.9,-46.1,74.2,-33.5C80.4,-21,79.4,-4.9,76.5,10.6C73.7,26,68.9,40.8,59.3,50.9C49.8,61,35.4,66.4,23,63.1C10.6,59.8,0,47.7,-13.8,44.7C-27.6,41.7,-44.8,47.7,-54.5,43.4C-64.3,39.1,-66.6,24.5,-64.8,11.7C-63,-1.2,-57.1,-12.3,-50.7,-21.9C-44.3,-31.5,-37.5,-39.6,-29,-45.8C-20.4,-51.9,-10.2,-56.2,1.7,-58.9C13.7,-61.5,27.4,-62.7,40.9,-58.8Z" transform="translate(100 100)" />
</svg>
