<?xml version="1.0" standalone="no"?>
<svg viewBox="0 0 200 200" xmlns="http://www.w3.org/2000/svg">
  <path fill="#24A148" d="M45.2,-61.3C59.7,-61.1,73.2,-50.3,75.5,-36.9C77.9,-23.5,69.2,-7.4,64.3,7.5C59.4,22.4,58.4,36.1,52,47C45.6,58,33.7,66.2,21.9,65.7C10,65.1,-1.8,55.7,-17.4,53.7C-33.1,51.7,-52.6,57.1,-60.6,50.9C-68.5,44.6,-64.9,26.7,-68,9.4C-71.1,-7.9,-80.9,-24.7,-77.3,-36.5C-73.8,-48.3,-56.8,-55.1,-41.6,-54.9C-26.5,-54.8,-13.3,-47.6,1.1,-49.3C15.4,-51,30.8,-61.4,45.2,-61.3Z" transform="translate(100 100)" />
</svg>
