<?xml version="1.0" standalone="no"?>
<svg viewBox="0 0 200 200" xmlns="http://www.w3.org/2000/svg">
  <path fill="#08BDBA" d="M33.2,-46.1C42.7,-45.5,49.9,-35.8,53.1,-25.3C56.4,-14.7,55.7,-3.4,58.6,11.7C61.5,26.8,67.9,45.6,62.7,57.8C57.5,70.1,40.7,75.7,25.7,73.8C10.7,72,-2.5,62.7,-17.7,58.9C-32.9,55.1,-50.2,56.7,-64,50.2C-77.9,43.7,-88.4,29,-91,12.9C-93.6,-3.1,-88.3,-20.5,-80.2,-35.9C-72.1,-51.3,-61.2,-64.8,-47.3,-63.5C-33.5,-62.1,-16.8,-46,-2.5,-42.2C11.8,-38.3,23.6,-46.8,33.2,-46.1Z" transform="translate(100 100)" />
</svg>
