<?xml version="1.0" standalone="no"?>
<svg viewBox="0 0 200 200" xmlns="http://www.w3.org/2000/svg">
  <path fill="#5162FF" d="M43.3,-59.1C56.3,-59,67.1,-47.3,72,-33.7C76.9,-20.2,75.8,-4.7,71.6,8.8C67.3,22.3,59.9,33.9,50.3,41.7C40.7,49.5,28.8,53.6,17.7,53.9C6.6,54.2,-3.6,50.8,-11.4,45.5C-19.2,40.2,-24.4,32.9,-36.5,27.1C-48.5,21.3,-67.4,16.8,-71.8,8.3C-76.2,-0.3,-66.2,-12.9,-59.4,-26.8C-52.6,-40.7,-49.1,-55.8,-39.7,-57.6C-30.4,-59.4,-15.2,-47.8,0,-47.8C15.1,-47.7,30.3,-59.2,43.3,-59.1Z" transform="translate(100 100)" />
</svg>
