<?xml version="1.0" standalone="no"?>
<svg viewBox="0 0 200 200" xmlns="http://www.w3.org/2000/svg">
  <path fill="#FA4D56" d="M45.6,-64.7C59.4,-62.2,70.8,-49.9,75.6,-35.6C80.3,-21.4,78.4,-5.2,75.1,10.1C71.7,25.3,67,39.6,55.7,42.6C44.3,45.6,26.4,37.2,13.5,36.7C0.7,36.2,-7.1,43.5,-17.2,46.2C-27.2,48.9,-39.5,46.9,-52.9,40.7C-66.2,34.5,-80.6,24.1,-86.4,10C-92.1,-4,-89.2,-21.7,-78.9,-32.5C-68.5,-43.4,-50.7,-47.3,-36.3,-49.4C-21.9,-51.6,-11,-52,2.5,-55.8C16,-59.7,31.9,-67.1,45.6,-64.7Z" transform="translate(100 100)" />
</svg>
